<?xml version="1.0" encoding="utf-8"?>
<!-- Generator: Adobe Illustrator 25.3.1, SVG Export Plug-In . SVG Version: 6.00 Build 0)  -->
<svg width="276px" version="1.1" id="Camada_1" xmlns="http://www.w3.org/2000/svg" xmlns:xlink="http://www.w3.org/1999/xlink" x="0px" y="0px"
	 viewBox="0 0 397.18 109.58" style="enable-background:new 0 0 397.18 109.58;" xml:space="preserve">
<style type="text/css">
	.st0{fill:#27348B;}
	.st1{fill:#008BD2;}
	.st2{fill:#FFFFFF;}
</style>
<g>
	<g>
		<rect x="72.25" y="0" class="st0" width="324.94" height="78.52"/>
		<rect y="0" class="st1" width="72.25" height="78.52"/>
		<path class="st2" d="M72.25,78.52c-0.7,0-0.69-0.62-0.69-0.62c-1.11-12.67-1.48-25.4-1.19-38.11c0.24-10.84,0.86-21.66,0.88-32.51
			c0-0.1-0.08-0.19-0.18-0.19h-5.58c-0.1,0-0.18-0.08-0.18-0.18V5.14c0-0.1,0.08-0.18,0.18-0.18h5.58c0.1,0,0.18-0.08,0.18-0.18
			V0.18c0-0.1,0.08-0.18,0.18-0.18h1.64c0.1,0,0.18,0.08,0.18,0.18v4.59c0,0.1,0.08,0.18,0.18,0.18h5.58c0.1,0,0.18,0.08,0.18,0.18
			v1.77c0,0.1-0.08,0.18-0.18,0.18h-5.58c-0.1,0-0.19,0.09-0.19,0.19c0.02,10.85,0.63,21.67,0.88,32.51
			c0.28,12.72-0.08,25.44-1.19,38.11C72.94,77.9,72.94,78.52,72.25,78.52"/>
		<path class="st2" d="M81.54,13.33c-1.28,5.64-2.55,11.46-2.58,17.26c-0.04,7.26,1.92,13.56,5.38,19.9
			c0.01,0.01,0.02,0.03,0.02,0.05l11.65,24.86c0.18,0.39,0.03,0.86-0.35,1.06c-0.38,0.21-0.86,0.08-1.08-0.29L80.24,53.22
			c0,0,0-0.01,0-0.01c-2.29-3.28-3.86-6.86-4.67-10.78c-2-9.75,1.13-20.41,4.41-29.55c0.14-0.4,0.58-0.63,0.99-0.51
			C81.39,12.49,81.64,12.91,81.54,13.33"/>
		<path class="st2" d="M51.43,16.84c-0.18-0.38-0.04-0.83,0.32-1.05c0.36-0.22,0.82-0.13,1.07,0.21
			c9.3,12.25,11.08,24.12-2.49,33.94c-2.77,2-5.6,3.91-8.47,5.77c-3.12,2.03-6.27,4.01-9.44,5.95c-3.47,2.13-6.97,4.23-10.47,6.31
			c-0.37,0.22-0.86,0.11-1.1-0.25c-0.24-0.36-0.15-0.85,0.2-1.11l26.66-19.42c3.51-2.56,6.85-5.75,8.07-10.06
			c0.83-2.9,0.58-5.9-0.08-8.81C54.8,24.41,53.11,20.47,51.43,16.84"/>
		<path class="st2" d="M56.42,14.69c-0.13-0.4,0.07-0.84,0.47-1c0.39-0.16,0.84,0.01,1.03,0.39c2.19,4.41,4.28,9.12,5.48,13.9
			c0.99,3.94,1.39,8.02,0.5,12.02c-1.13,5.02-4.1,9.02-7.92,12.36c-3.58,3.13-7.19,6.21-10.86,9.23c-3.02,2.48-6.08,4.91-9.17,7.29
			c-1.65,1.27-3.3,2.53-4.96,3.78c-0.34,0.26-0.82,0.21-1.1-0.11c-0.28-0.33-0.25-0.81,0.05-1.1l23.45-22.94
			c2.82-2.76,5.47-5.89,6.64-9.72c0.97-3.19,0.81-6.53,0.27-9.78c-0.36-2.16-0.89-4.3-1.47-6.41
			C58.09,19.94,57.26,17.31,56.42,14.69"/>
		<path class="st2" d="M63.1,13.33c-0.1-0.42,0.16-0.85,0.57-0.96c0.41-0.12,0.85,0.1,0.99,0.51c3.28,9.14,6.4,19.8,4.41,29.55
			c-0.8,3.92-2.38,7.5-4.67,10.78c0,0,0,0,0,0.01L50.06,76.17c-0.23,0.37-0.7,0.49-1.08,0.29c-0.38-0.21-0.53-0.67-0.35-1.06
			l11.65-24.86c0.01-0.02,0.02-0.03,0.02-0.05c3.46-6.34,5.42-12.64,5.38-19.9C65.64,24.79,64.38,18.97,63.1,13.33"/>
		<path class="st2" d="M93.21,16.84c-1.68,3.63-3.37,7.57-4.27,11.48c-0.67,2.91-0.91,5.91-0.08,8.81c1.22,4.3,4.56,7.5,8.07,10.06
			l26.66,19.42c0.35,0.26,0.44,0.74,0.2,1.11c-0.24,0.36-0.73,0.48-1.1,0.25c-3.51-2.08-7-4.17-10.47-6.31
			c-3.17-1.95-6.33-3.92-9.45-5.95c-2.86-1.86-5.7-3.77-8.46-5.77C80.74,40.12,82.52,28.25,91.82,16c0.25-0.33,0.71-0.42,1.07-0.21
			C93.25,16.01,93.39,16.46,93.21,16.84"/>
		<path class="st2" d="M88.22,14.69c-0.84,2.62-1.67,5.25-2.4,7.9c-0.58,2.11-1.1,4.25-1.47,6.41c-0.54,3.25-0.7,6.59,0.26,9.78
			c1.17,3.84,3.82,6.97,6.64,9.72l23.45,22.94c0.3,0.3,0.33,0.78,0.05,1.1c-0.28,0.32-0.76,0.37-1.1,0.11
			c-1.66-1.25-3.31-2.51-4.96-3.78c-3.09-2.39-6.15-4.81-9.17-7.29c-3.67-3.02-7.29-6.1-10.86-9.23c-3.82-3.34-6.79-7.34-7.92-12.36
			c-0.9-4-0.5-8.08,0.49-12.02c1.21-4.78,3.29-9.5,5.48-13.9c0.19-0.38,0.64-0.54,1.03-0.39C88.15,13.85,88.35,14.28,88.22,14.69"/>
		<path class="st2" d="M173.23,63.04c-2.01,1.01-6.55,2.09-12.45,2.09c-16.76,0-25.39-10.43-25.39-24.24
			c0-16.55,11.8-25.75,26.47-25.75c5.68,0,10,1.15,11.94,2.16l-2.23,8.7c-2.23-0.93-5.32-1.8-9.21-1.8
			c-8.7,0-15.47,5.25-15.47,16.04c0,9.71,5.75,15.83,15.54,15.83c3.31,0,6.98-0.72,9.14-1.58L173.23,63.04z"/>
		<path class="st2" d="M198.98,64.4l-0.65-3.52h-0.22c-2.3,2.81-5.9,4.32-10.07,4.32c-7.12,0-11.37-5.18-11.37-10.79
			c0-9.14,8.2-13.52,20.65-13.45v-0.5c0-1.87-1.01-4.53-6.4-4.53c-3.6,0-7.41,1.22-9.71,2.66l-2.01-7.05
			c2.45-1.37,7.27-3.09,13.67-3.09c11.73,0,15.47,6.91,15.47,15.18v12.23c0,3.38,0.14,6.62,0.5,8.56H198.98z M197.69,47.79
			c-5.76-0.07-10.22,1.29-10.22,5.54c0,2.81,1.87,4.17,4.32,4.17c2.73,0,4.96-1.8,5.68-4.03c0.14-0.58,0.22-1.22,0.22-1.87V47.79z"
			/>
		<path class="st2" d="M228.26,19.15v10.07h7.84v8.06h-7.84v12.73c0,4.24,1.01,6.19,4.32,6.19c1.37,0,2.45-0.14,3.24-0.29l0.07,8.27
			c-1.44,0.58-4.03,0.93-7.12,0.93c-3.52,0-6.47-1.22-8.2-3.02c-2.01-2.09-3.02-5.47-3.02-10.43V37.28h-4.68v-8.06h4.68V21.6
			L228.26,19.15z"/>
		<path class="st2" d="M276.46,46.42c0,12.88-9.14,18.78-18.56,18.78c-10.29,0-18.2-6.76-18.2-18.13c0-11.37,7.48-18.63,18.78-18.63
			C269.26,28.43,276.46,35.84,276.46,46.42 M250.99,46.78c0,6.04,2.52,10.57,7.19,10.57c4.25,0,6.98-4.24,6.98-10.57
			c0-5.25-2.01-10.57-6.98-10.57C252.94,36.2,250.99,41.6,250.99,46.78 M269.55,13.9l-8.78,10.93h-7.55l6.19-10.93H269.55z"/>
		<rect x="282.86" y="13.33" class="st2" width="10.93" height="51.08"/>
		<path class="st2" d="M313.58,19.44c0,3.02-2.3,5.47-5.9,5.47c-3.45,0-5.75-2.45-5.68-5.47c-0.07-3.17,2.23-5.54,5.75-5.54
			C311.28,13.9,313.51,16.28,313.58,19.44 M302.28,29.23h10.93V64.4h-10.93V29.23z"/>
		<path class="st2" d="M348.03,63.54c-1.94,0.86-5.61,1.58-9.78,1.58c-11.37,0-18.63-6.91-18.63-17.98c0-10.29,7.05-18.7,20.14-18.7
			c2.88,0,6.04,0.5,8.34,1.37l-1.73,8.13c-1.29-0.58-3.24-1.08-6.11-1.08c-5.76,0-9.5,4.1-9.42,9.86c0,6.47,4.32,9.86,9.64,9.86
			c2.59,0,4.6-0.43,6.26-1.08L348.03,63.54z"/>
		<path class="st2" d="M374,64.4l-0.65-3.52h-0.22c-2.3,2.81-5.9,4.32-10.07,4.32c-7.12,0-11.37-5.18-11.37-10.79
			c0-9.14,8.2-13.52,20.65-13.45v-0.5c0-1.87-1.01-4.53-6.4-4.53c-3.6,0-7.41,1.22-9.71,2.66l-2.01-7.05
			c2.45-1.37,7.27-3.09,13.67-3.09c11.73,0,15.47,6.91,15.47,15.18v12.23c0,3.38,0.14,6.62,0.5,8.56H374z M372.71,47.79
			c-5.75-0.07-10.21,1.29-10.21,5.54c0,2.81,1.87,4.17,4.32,4.17c2.73,0,4.96-1.8,5.68-4.03c0.14-0.58,0.22-1.22,0.22-1.87V47.79z"
			/>
	</g>
</g>
</svg>
